<svg width="513" height="328" viewBox="0 0 513 328" fill="none" xmlns="http://www.w3.org/2000/svg">
<path fill-rule="evenodd" clip-rule="evenodd" d="M3.37448 2.455C0.126477 5.702 0.126477 10.298 3.37448 13.545L5.82848 16H28.3745H50.9195V44.5V73H40.5015C28.3955 73 27.3415 73.284 25.3825 77.072C23.2245 81.246 23.2245 143.754 25.3825 147.928C27.3415 151.716 28.3955 152 40.5015 152H50.9195V162V172H40.0305C30.8015 172 28.7815 172.291 26.7805 173.911L24.4195 175.821L24.1265 209.161C23.9655 227.497 24.0895 243.524 24.4025 244.775C24.7145 246.027 25.8585 247.939 26.9445 249.025C28.6715 250.752 30.3005 251 39.9195 251H50.9195V285.953C50.9195 309.439 51.2835 321.705 52.0295 323.343C54.2545 328.226 60.6515 329.359 64.4645 325.545C66.9035 323.107 66.9195 322.964 66.9195 303.545V284H82.4195H97.9195V301.365C97.9195 317.419 98.0765 318.929 99.9925 321.365L102.064 324H161.492C219.586 324 220.964 323.955 222.919 322C224.771 320.148 224.919 318.667 224.919 302V284H238.419H251.919V301.365C251.919 317.419 252.076 318.929 253.992 321.365L256.064 324H358.817H461.57L463.745 321.686C465.807 319.491 465.919 318.464 465.919 301.804V284.236L478.669 283.805C489.964 283.423 491.99 283.077 496.419 280.776C502.349 277.696 506.826 273.174 510.061 267L512.419 262.5L512.688 164.072C512.999 50.57 513.597 58.518 504.016 48.937C494.188 39.109 516.809 40 277.237 40H66.9195V22.455C66.9195 5.159 66.8845 4.874 64.4645 2.455L62.0105 0H33.9195H5.82848L3.37448 2.455ZM489.857 57.827C491.731 58.832 494.087 61.188 495.092 63.062C496.825 66.293 496.919 71.389 496.919 162C496.919 252.611 496.825 257.707 495.092 260.938C494.087 262.812 491.731 265.168 489.857 266.173C486.589 267.926 477.931 268 276.685 268H66.9195V162V56H276.685C477.931 56 486.589 56.074 489.857 57.827ZM164.419 70.109C127.686 75.406 96.7745 103.843 87.7685 140.623C84.7405 152.99 84.7405 171.01 87.7685 183.377C96.0475 217.186 122.733 243.872 156.542 252.151C168.909 255.179 186.929 255.179 199.296 252.151C254.13 238.724 284.792 180.215 264.282 128.147C248.568 88.255 206.823 63.994 164.419 70.109ZM372.419 70.109C336.185 75.335 305.72 102.837 296.184 138.93C292.712 152.072 292.53 170.408 295.743 183.377C304.153 217.328 330.699 243.864 364.542 252.151C376.934 255.185 394.908 255.179 407.419 252.135C419.07 249.301 434.453 241.712 443.919 234.13C458.99 222.058 471.398 202.524 476.08 183.5C479.307 170.383 479.133 152.098 475.654 138.93C470.434 119.172 459.411 102.158 443.649 89.531C423.733 73.578 397.662 66.469 372.419 70.109ZM191.919 86.568C197.804 87.45 209.276 91.538 214.815 94.725L219.211 97.255L211.963 100.612C198.663 106.773 188.095 115.689 181.228 126.544C178.933 130.172 177.936 130.884 174.722 131.19C171.102 131.535 170.896 131.395 170.29 128.164C169.94 126.301 169.876 120.888 170.147 116.135C170.692 106.581 173.337 98.698 178.918 90.001C181.751 85.586 182.542 84.967 184.805 85.397C186.243 85.67 189.444 86.197 191.919 86.568ZM399.919 86.568C405.804 87.45 417.276 91.538 422.815 94.725L427.211 97.255L419.963 100.612C406.663 106.773 396.095 115.689 389.228 126.544C386.924 130.185 385.942 130.883 382.682 131.194C377.856 131.654 377.479 130.491 378.136 117.165C378.661 106.509 381.033 99.173 386.918 90.001C389.751 85.586 390.542 84.967 392.805 85.397C394.243 85.67 397.444 86.197 399.919 86.568ZM159.83 91.468C154.401 103.741 152.45 121.351 155.072 134.408C156.186 139.957 156.139 140.234 153.665 142.709L151.105 145.269L148.099 143.128C139.195 136.788 130.027 122.153 127.759 110.662C126.613 104.851 126.621 104.812 129.513 102.4C134.621 98.141 144.195 92.803 151.919 89.908C162.014 86.125 162.179 86.157 159.83 91.468ZM368.55 89.75C362.913 100.66 360.401 120.154 362.914 133.476C364.165 140.105 364.149 140.225 361.643 142.73L359.105 145.269L356.099 143.128C347.021 136.664 338.14 122.477 335.776 110.662C334.611 104.843 334.617 104.815 337.513 102.4C342.621 98.141 352.195 92.803 359.919 89.908C369.67 86.254 370.362 86.241 368.55 89.75ZM50.9195 112.5V136H45.4195H39.9195V112.5V89H45.4195H50.9195V112.5ZM239.187 115.75C244.657 123.306 247.757 129.174 250.43 137.031C251.799 141.057 252.919 144.697 252.919 145.12C252.919 145.544 250.392 144.772 247.303 143.406C235.561 138.213 218.74 136.496 205.554 139.144C200.169 140.226 199.72 140.161 197.387 137.97C196.03 136.695 194.919 135.296 194.919 134.862C194.919 134.428 197.618 131.188 200.917 127.662C207.444 120.684 216.811 115.061 226.043 112.578C234.564 110.286 235.373 110.481 239.187 115.75ZM447.049 115.75C453.47 124.364 458.065 133.891 460.287 143.198L460.931 145.895L455.309 143.409C443.546 138.207 426.742 136.496 413.511 139.153C407.975 140.265 407.68 140.216 405.243 137.778C402.049 134.585 402.633 133.363 411.151 125.414C417.882 119.133 425.469 114.887 434.125 112.557C442.393 110.331 443.149 110.518 447.049 115.75ZM126.797 144.621C130.935 149.683 139.993 157.548 145.396 160.773C146.067 161.173 146.874 163.144 147.189 165.154C147.882 169.573 146.977 169.966 136.063 169.986C124.279 170.008 111.723 165.914 104.223 159.602C101.367 157.2 101.272 156.862 101.98 151.645C103.255 142.255 106.116 133.808 111.315 124.084L113.142 120.668L117.468 129.584C119.847 134.488 124.046 141.254 126.797 144.621ZM335.361 145.247C338.439 148.957 344.052 154.132 347.834 156.747C353.956 160.978 354.752 161.906 355.086 165.193C355.537 169.635 354.776 169.966 344.063 169.986C332.278 170.008 319.723 165.914 312.221 159.601C309.298 157.141 309.254 156.967 310.072 150.991C311.111 143.392 315.228 130.909 318.609 125.11L321.167 120.72L325.466 129.61C327.83 134.5 332.283 141.536 335.361 145.247ZM184.848 148.752C191.911 152.353 194.847 161.135 191.41 168.378C186.174 179.413 170.362 179.67 164.822 168.81C158.178 155.786 171.828 142.113 184.848 148.752ZM392.538 148.623C403.11 153.64 403.563 168.858 393.315 174.734C382.842 180.738 370.161 172.793 371.198 160.878C372.137 150.1 382.775 143.991 392.538 148.623ZM233.987 155.612C239.867 157.358 249.074 161.848 252.648 164.713C254.779 166.422 254.828 166.805 253.783 173.5C252.519 181.591 248.769 192.62 245.189 198.772L242.703 203.045L237.748 192.945C233.594 184.477 231.468 181.525 224.592 174.673C220.081 170.178 214.749 165.631 212.742 164.57C209.675 162.947 209.037 162.033 208.731 158.828C208.531 156.732 208.829 154.824 209.393 154.587C212.15 153.433 229.012 154.135 233.987 155.612ZM443.079 155.968C446.583 157.05 452.368 159.704 455.934 161.865L462.419 165.795L462.094 170.147C461.443 178.875 457.356 191.6 452.559 199.842L450.613 203.183L447.281 195.99C441.146 182.745 432.214 172.166 421.375 165.309C417.749 163.015 417.035 162.016 416.729 158.808C416.53 156.723 416.829 154.824 417.393 154.587C420.57 153.257 437.194 154.15 443.079 155.968ZM119.829 184.089C128.302 186.274 141.578 186.604 150.327 184.847C155.876 183.733 156.153 183.78 158.628 186.254L161.188 188.814L159.047 191.82C155.506 196.793 146.861 204.001 140.716 207.103C135.19 209.892 125.225 213.017 121.959 212.985C118.583 212.951 107.792 195.047 104.531 184.067C103.645 181.08 102.919 178.51 102.919 178.354C102.919 178.198 105.057 178.995 107.669 180.125C110.281 181.254 115.753 183.038 119.829 184.089ZM327.547 184.033C336.31 186.274 349.486 186.622 358.327 184.847C363.876 183.733 364.153 183.78 366.628 186.254L369.188 188.814L367.047 191.82C363.506 196.793 354.861 204.001 348.716 207.103C343.094 209.94 333.266 213 329.772 213C326.225 213 314.01 191.435 311.535 180.804L310.908 178.108L315.382 180.087C317.843 181.175 323.317 182.951 327.547 184.033ZM211.627 184.25C220.647 192.725 226.737 203.935 228.421 215.163L229.108 219.747L220.764 225.247C213.056 230.327 203.272 234.859 196.721 236.384L194.024 237.012L196.336 231.756C201.657 219.661 203.428 202.85 200.775 189.635C199.693 184.25 199.758 183.801 201.949 181.468C203.224 180.111 204.666 179 205.153 179C205.64 179 208.553 181.363 211.627 184.25ZM420.424 185.08C424.343 188.843 428.109 193.736 430.309 197.922C433.65 204.28 436.919 214.283 436.919 218.147C436.919 221.694 415.354 233.909 404.723 236.384L402.027 237.011L404.006 232.537C409.43 220.275 411.389 202.652 408.775 189.635C407.693 184.25 407.758 183.801 409.949 181.468C411.224 180.111 412.678 179 413.18 179C413.682 179 416.941 181.736 420.424 185.08ZM50.9195 211.5V235H45.4195H39.9195V211.5V188H45.4195H50.9195V211.5ZM185.53 194.585C185.886 196.006 185.953 201.519 185.679 206.835C185.132 217.406 183.236 223.58 177.76 232.615C174.659 237.732 174.291 238 170.368 238C164.063 238 151.976 234.558 143.783 230.429L136.419 226.718L143.78 223.368C157.085 217.312 167.692 208.391 174.635 197.417C176.694 194.163 178.119 192.997 180.395 192.707C182.058 192.494 183.748 192.248 184.15 192.16C184.552 192.072 185.173 193.163 185.53 194.585ZM393.53 194.585C393.886 196.006 393.951 201.519 393.673 206.835C393.111 217.6 390.833 224.911 385.602 232.738C383 236.63 381.803 237.559 379.044 237.823C373.59 238.344 361.754 235.213 352.787 230.877L344.447 226.844L353.433 222.499C364.735 217.035 374.541 208.953 380.666 200.057C384.454 194.555 386.028 193.068 388.419 192.736C390.069 192.507 391.748 192.248 392.15 192.16C392.552 192.072 393.173 193.163 393.53 194.585ZM208.919 296V308H198.419H187.919V302.082C187.919 294.691 187.382 293.291 183.847 291.463C179.782 289.361 178.138 289.628 174.842 292.923C172.253 295.512 171.919 296.54 171.919 301.923V308H161.419H150.919L150.887 301.75C150.854 295.251 149.921 293.126 146.235 291.163C142.858 289.365 141.013 289.752 137.842 292.923C135.253 295.512 134.919 296.54 134.919 301.923V308H124.419H113.919V296V284H161.419H208.919V296ZM449.919 296V308H441.419H432.919V302.082C432.919 294.691 432.382 293.291 428.847 291.463C424.782 289.361 423.138 289.628 419.842 292.923C417.253 295.512 416.919 296.54 416.919 301.923V308H408.419H399.919L399.887 301.75C399.854 295.251 398.921 293.126 395.235 291.163C391.858 289.365 390.013 289.752 386.842 292.923C384.253 295.512 383.919 296.54 383.919 301.923V308H375.419H366.919V302.547C366.919 295.997 365.537 292.602 362.262 291.11C358.541 289.415 357.023 289.742 353.842 292.923C351.253 295.512 350.919 296.54 350.919 301.923V308H342.419H333.919V301.923C333.919 296.54 333.585 295.512 330.996 292.923C327.825 289.752 325.98 289.365 322.603 291.163C318.917 293.126 317.984 295.251 317.951 301.75L317.919 308H309.419H300.919V301.923C300.919 296.54 300.585 295.512 297.996 292.923C294.825 289.752 292.98 289.365 289.603 291.163C285.917 293.126 284.984 295.251 284.951 301.75L284.919 308H276.419H267.919V296V284H358.919H449.919V296Z" fill="black"/>
</svg>
