<svg width="401" height="512" viewBox="0 0 401 512" fill="none" xmlns="http://www.w3.org/2000/svg">
<path fill-rule="evenodd" clip-rule="evenodd" d="M16.8 1.15101C9.99095 3.59401 4.91295 8.77901 2.42695 15.827C1.13795 19.479 0.947954 50.279 0.947954 255.714C0.947954 517.239 0.403954 496.811 7.55895 504.177C9.47395 506.149 12.483 508.551 14.245 509.514C17.264 511.165 28.009 511.266 200.948 511.266C373.887 511.266 384.632 511.165 387.651 509.514C389.413 508.551 392.422 506.149 394.337 504.177C401.492 496.811 400.948 517.234 400.948 255.766C400.948 -5.70198 401.492 14.721 394.337 7.35501C392.422 5.38301 389.413 2.98101 387.651 2.01801C384.637 0.369012 373.726 0.254012 202.448 0.0540123C54.604 -0.117988 19.763 0.0880123 16.8 1.15101ZM383.025 17.689L385.948 20.612V255.766V490.92L383.025 493.843L380.102 496.766H200.948H21.794L18.871 493.843L15.948 490.92V255.766V20.612L18.871 17.689L21.794 14.766H200.948H380.102L383.025 17.689ZM35.403 34.221C34.053 35.571 32.948 37.841 32.948 39.266C32.948 42.752 37.1119 46.766 40.728 46.766C47.298 46.766 50.45 37.879 45.313 33.839C41.818 31.089 38.402 31.221 35.403 34.221ZM186.948 32.347C162.518 35.181 145.4 40.09 125.613 49.935C106.657 59.367 89.0199 72.904 75.4189 88.462C35.3679 134.273 22.912 196.012 42.088 253.669C47.565 270.139 61.96 296.044 70.891 305.504C75.811 310.716 83.165 308.518 83.726 301.667C83.9549 298.877 83.0099 296.933 78.463 290.841C25.679 220.122 43.88 119.63 118.226 71.308C134.468 60.752 153.812 53.11 174.448 49.097C188.109 46.441 216.076 46.705 229.721 49.619C255.163 55.053 275.206 64.099 294.54 78.874C300.774 83.638 304.817 84.019 307.875 80.131C312.313 74.49 310.065 70.959 295.981 61.452C274.915 47.233 253.915 38.72 228.759 34.201C220.599 32.736 193.831 31.548 186.948 32.347ZM356.403 34.221C351.645 38.978 354.888 46.766 361.628 46.766C364.808 46.766 368.948 42.524 368.948 39.266C368.948 35.932 364.782 31.766 361.448 31.766C360.023 31.766 357.753 32.871 356.403 34.221ZM320.122 93.08C316.49 96.947 317.329 99.995 324.931 110.561C357.695 156.094 362.78 216.439 338.091 266.721C313.757 316.281 266.409 347.77 209.448 352.275C201.235 352.925 176.023 351.223 174.72 349.931C174.319 349.534 187.032 336.175 202.97 320.244C230.215 293.011 231.948 291.064 231.948 287.677C231.948 283.195 229.462 280.766 224.875 280.766C221.724 280.766 218.933 283.291 188.899 313.315L156.339 345.864L148.893 343.188C135.192 338.264 120.372 330.169 108.017 320.858C101.378 315.855 97.156 315.415 94.021 319.401C91.3999 322.732 91.386 325.786 93.979 328.569C96.666 331.453 105.579 338.002 112.456 342.144L117.983 345.474L111.643 348.595C108.156 350.312 104.495 352.609 103.508 353.699C101.732 355.662 101.656 355.642 95.776 351.649C86.092 345.073 72.66 333.344 64.42 324.267C56.032 315.028 52.1299 312.946 45.5229 314.186C40.7649 315.079 35.239 320.037 33.908 324.609C33.193 327.064 32.942 347.278 33.146 386.105L33.448 443.944L35.809 445.855C37.107 446.906 39.53 447.766 41.193 447.766C46.482 447.766 51.932 450 56.541 454.057C62.093 458.944 63.587 461.779 64.879 469.883C66.5939 480.638 60.575 479.766 133.099 479.766C193.723 479.766 196.169 479.694 199.887 477.797C202.01 476.714 204.692 474.299 205.847 472.429C207.882 469.136 207.948 467.876 207.948 432.046C207.948 395.331 207.932 395.037 205.695 391.718C202.089 386.368 198.681 385.017 185.8 383.83C168.837 382.267 167.954 382.024 167.915 378.891C167.887 376.609 165.79 369.78 163.535 364.624C162.876 363.117 163.364 363.097 169.501 364.384C204.128 371.642 245.35 365.665 278.074 348.64C309.55 332.264 334.422 307.026 350.637 275.008C378.005 220.967 373.991 156.821 340.067 106.106C336.729 101.114 332.68 95.62 331.071 93.898C327.469 90.041 323.272 89.728 320.122 93.08ZM193.948 144.419C182.898 145.794 170.378 152.129 161.845 160.663C151.038 171.469 145.71 184.382 145.71 199.766C145.71 215.129 150.988 227.806 161.948 238.766C172.886 249.704 185.283 254.766 201.132 254.766C216.771 254.766 228.981 249.733 239.948 238.766C251.068 227.646 256.247 215.034 256.15 199.316C255.996 174.601 239.803 153.151 216.078 146.238C210.862 144.718 199.228 143.762 193.948 144.419ZM215.249 161.792C226.343 165.974 236.404 176.678 239.638 187.74C244.498 204.362 237.95 223.615 224.381 232.603C215.926 238.203 209.605 239.977 199.448 239.6C191.803 239.316 189.428 238.782 183.673 236.056C158.431 224.101 152.661 190.936 172.39 171.208C177.861 165.736 185.911 161.28 192.993 159.802C199.057 158.537 208.964 159.423 215.249 161.792ZM193.948 177.303C175.153 183.138 171.797 208.875 188.476 219.266C192.734 221.919 194.177 222.266 200.948 222.266C207.719 222.266 209.162 221.919 213.42 219.266C230.282 208.761 226.656 182.948 207.516 177.237C201.598 175.471 199.818 175.48 193.948 177.303ZM204.03 191.766C206.28 191.766 208.948 195.935 208.948 199.452C208.948 204.414 205.779 207.766 201.088 207.766C194.785 207.766 191.133 201.658 193.598 195.237C194.355 193.264 199.839 190.627 201.78 191.302C202.512 191.557 203.525 191.766 204.03 191.766ZM63.832 354.235C54 375.363 55.2379 399.837 67.173 420.266C72.007 428.542 84.1739 440.873 92.1559 445.587C124.741 464.831 167.036 455.34 187.935 424.094L192.948 416.598V440.682V464.766H135.948C82.3289 464.766 78.9479 464.662 78.9469 463.016C78.9459 459.479 72.932 448.697 68.474 444.24C64.017 439.782 53.235 433.768 49.698 433.767C48.054 433.766 47.948 430.595 47.948 381.173V328.581L57.293 338.392L66.638 348.204L63.832 354.235ZM86.582 363.473L92.7169 367.759L91.159 372.012C89.084 377.675 89.189 390.88 91.354 396.723C95.514 407.949 103.937 416.663 114.696 420.87C122.758 424.022 135.164 424.012 143.265 420.846C150.8 417.901 160.645 408.819 163.949 401.764L166.367 396.602L170.907 397.211C181.096 398.577 182.948 398.982 182.948 399.843C182.948 402.509 178.588 411.516 174.577 417.137C166.471 428.497 154.426 436.287 140.36 439.267C130.985 441.253 124.701 441.132 115.544 438.791C93.5529 433.166 77.846 416.623 73.27 394.266C71.913 387.637 71.817 384.81 72.709 377.766C73.935 368.096 77.5979 357.433 79.3289 358.499C79.9439 358.878 83.208 361.116 86.582 363.473ZM141.541 363.318C148.351 367.528 152.248 374.107 152.768 382.273C153.262 390.033 151.938 394.249 147.311 399.655C142.121 405.718 136.84 408.184 128.948 408.229C107.002 408.354 96.209 382.388 111.757 366.871C117.396 361.242 121.305 359.795 130.067 360.092C135.439 360.274 137.602 360.882 141.541 363.318ZM123.892 378.61C120.596 381.279 120.806 386.387 124.337 389.424C127.692 392.31 129.902 392.376 133.313 389.693C135.244 388.175 135.948 386.705 135.948 384.193C135.948 377.683 129.007 374.469 123.892 378.61ZM233.189 386.761C226.439 390.876 225.956 392.839 225.952 416.148C225.947 440.085 226.46 441.899 234.301 445.695C238.48 447.718 239.952 447.766 297.363 447.766C362.792 447.766 360.374 448.007 365.754 440.954L368.448 437.424V416.169C368.448 392.504 368.326 392.031 360.958 387.016L357.652 384.766L297.05 384.77C238.342 384.773 236.346 384.836 233.189 386.761ZM353.948 416.266V432.766H297.448H240.948V416.266V399.766H297.448H353.948V416.266ZM35.403 467.221C34.053 468.571 32.948 470.841 32.948 472.266C32.948 475.524 37.088 479.766 40.268 479.766C44.231 479.766 47.948 476.136 47.948 472.266C47.948 469.833 47.2239 468.342 45.313 466.839C41.818 464.089 38.402 464.221 35.403 467.221ZM356.583 466.839C353.138 469.548 353.062 473.971 356.403 477.311C357.753 478.661 360.023 479.766 361.448 479.766C362.873 479.766 365.143 478.661 366.493 477.311C367.843 475.961 368.948 473.691 368.948 472.266C368.948 469.008 364.808 464.766 361.628 464.766C360.302 464.766 358.032 465.699 356.583 466.839Z" fill="black"/>
</svg>
