<svg width="35" height="22" viewBox="0 0 35 22" fill="none" xmlns="http://www.w3.org/2000/svg">
<path fill-rule="evenodd" clip-rule="evenodd" d="M3.36021 0.0571594C2.889 0.0965742 2.81725 0.12209 2.6081 0.324468C2.481 0.44748 2.34422 0.627298 2.30414 0.723988C2.25283 0.848007 2.23662 3.59348 2.2492 10.0317C2.26695 19.1067 2.26796 19.1651 2.40522 19.3984C2.67737 19.861 2.82505 19.9091 4.12712 19.9584C5.65097 20.0161 28.6764 20.0162 30.2715 19.9586C31.6417 19.909 31.7797 19.8656 32.0546 19.3984C32.1915 19.1657 32.1929 19.0947 32.2101 11.4418C32.2196 7.1948 32.2042 3.01972 32.176 2.16374C32.1254 0.630521 32.1221 0.604871 31.9569 0.428209C31.8647 0.329572 31.6769 0.191385 31.5397 0.12115C31.2967 -0.0033393 30.935 -0.00636089 17.5857 0.0035096C10.0481 0.00908274 3.64669 0.0332554 3.36021 0.0571594ZM31.2849 9.99815V19.0629H17.2299H3.17494V9.99815V0.933417H17.2299H31.2849V9.99815ZM0.0242095 21.2733C0.0375247 21.5659 0.0734355 21.8303 0.104101 21.8609C0.195425 21.9523 6.06637 22 17.2299 22C28.3935 22 34.2644 21.9523 34.3557 21.8609C34.3864 21.8303 34.4223 21.5659 34.4356 21.2733L34.4598 20.7415H27.4208H20.3819L20.2122 20.943L20.0424 21.1444H17.2259H14.4095L14.2603 20.943L14.1112 20.7415H7.05559H0L0.0242095 21.2733Z" fill="black"/>
</svg>
