<svg width="22" height="22" viewBox="0 0 22 22" fill="none" xmlns="http://www.w3.org/2000/svg">
<path fill-rule="evenodd" clip-rule="evenodd" d="M4.78146 0.0587699C4.553 0.158149 4.53293 0.239045 4.50942 1.15667L4.48793 1.99485L4.0151 2.02108C3.75505 2.03552 3.47135 2.06982 3.38466 2.09737C2.81912 2.27683 2.27683 2.81912 2.09737 3.38466C2.06982 3.47135 2.03552 3.75505 2.02108 4.0151L1.99485 4.48793L1.15667 4.50942C0.232038 4.53314 0.156558 4.55244 0.0569216 4.79088C-0.0206215 4.97652 -0.0195469 5.04375 0.063885 5.2196C0.180887 5.46607 0.313321 5.49805 1.2177 5.49805H2.01794L2.00637 6.49743L1.99485 7.49681L1.16195 7.5085C0.224946 7.52165 0.135625 7.54813 0.0387823 7.84154C-0.027413 8.04219 0.0161298 8.2109 0.172849 8.36117L0.302446 8.48544L1.15942 8.49941L2.01635 8.51338V9.49878V10.4842L1.25338 10.4866C0.38807 10.4894 0.239646 10.5215 0.0943176 10.7377C-0.030121 10.9228 -0.030121 11.0772 0.0943176 11.2623C0.239646 11.4785 0.38807 11.5106 1.25338 11.5134L2.01635 11.5158V12.5012V13.4866L1.15942 13.5006L0.302446 13.5146L0.172849 13.6388C0.0161298 13.7891 -0.027413 13.9578 0.0387823 14.1585C0.135625 14.4519 0.224946 14.4783 1.16195 14.4915L1.99485 14.5032L2.00637 15.5026L2.01794 16.5019H1.2177C0.313321 16.5019 0.180887 16.5339 0.063885 16.7804C-0.0195469 16.9562 -0.0206215 17.0235 0.0569216 17.2091C0.156558 17.4476 0.232038 17.4669 1.15667 17.4906L1.99485 17.5121L2.02108 17.9849C2.03552 18.2449 2.06982 18.5286 2.09737 18.6153C2.27683 19.1809 2.81912 19.7232 3.38466 19.9026C3.47135 19.9302 3.75505 19.9645 4.0151 19.9789L4.48793 20.0051L4.50942 20.8433C4.53314 21.768 4.55244 21.8434 4.79088 21.9431C4.97652 22.0206 5.04375 22.0195 5.2196 21.9361C5.46607 21.8191 5.49805 21.6867 5.49805 20.7823V19.9821L6.49743 19.9936L7.49681 20.0051L7.5085 20.838C7.52165 21.7751 7.54813 21.8644 7.84154 21.9612C8.04219 22.0274 8.2109 21.9839 8.36117 21.8272L8.48544 21.6976L8.49941 20.8406L8.51338 19.9837H9.49552H10.4776L10.4917 20.8188C10.5077 21.7706 10.5308 21.8418 10.8624 21.959C11.0211 22.015 11.0549 22.0141 11.1896 21.9499C11.4717 21.8154 11.4926 21.7408 11.5083 20.8131L11.5224 19.9837H12.5045H13.4866L13.5006 20.8406L13.5146 21.6976L13.6388 21.8272C13.7891 21.9839 13.9578 22.0274 14.1585 21.9612C14.4519 21.8644 14.4783 21.7751 14.4915 20.838L14.5032 20.0051L15.5026 19.9936L16.5019 19.9821V20.7823C16.5019 21.6867 16.5339 21.8191 16.7804 21.9361C16.9562 22.0195 17.0235 22.0206 17.2091 21.9431C17.4476 21.8434 17.4669 21.768 17.4906 20.8433L17.5121 20.0051L17.9849 19.9789C18.2449 19.9645 18.5286 19.9302 18.6153 19.9026C19.1809 19.7232 19.7232 19.1809 19.9026 18.6153C19.9302 18.5286 19.9645 18.2449 19.9789 17.9849L20.0051 17.5121L20.8433 17.4906C21.768 17.4669 21.8434 17.4476 21.9431 17.2091C22.0206 17.0235 22.0195 16.9562 21.9361 16.7804C21.8191 16.5339 21.6867 16.5019 20.7823 16.5019H19.9821L19.9936 15.5026L20.0051 14.5032L20.838 14.4915C21.7751 14.4783 21.8644 14.4519 21.9612 14.1585C22.0274 13.9578 21.9839 13.7891 21.8272 13.6388L21.6976 13.5146L20.8406 13.5006L19.9837 13.4866V12.5045V11.5224L20.8188 11.5083C21.7665 11.4924 21.8424 11.4683 21.9556 11.1465C22.0069 11.0008 22.0059 10.9575 21.9484 10.8207C21.8265 10.5304 21.7474 10.5074 20.8131 10.4917L19.9837 10.4776V9.49552V8.51338L20.8406 8.49941L21.6976 8.48544L21.8272 8.36117C21.9839 8.2109 22.0274 8.04219 21.9612 7.84154C21.8644 7.54813 21.7751 7.52165 20.838 7.5085L20.0051 7.49681L19.9936 6.49743L19.9821 5.49805H20.7823C21.6867 5.49805 21.8191 5.46607 21.9361 5.2196C22.0195 5.04375 22.0206 4.97652 21.9431 4.79088C21.8434 4.55244 21.768 4.53314 20.8433 4.50942L20.0051 4.48793L19.9789 4.0151C19.9645 3.75505 19.9302 3.47135 19.9026 3.38466C19.7232 2.81912 19.1809 2.27683 18.6153 2.09737C18.5286 2.06982 18.2449 2.03552 17.9849 2.02108L17.5121 1.99485L17.4906 1.15667C17.4669 0.232038 17.4476 0.156558 17.2091 0.0569216C17.0235 -0.0206215 16.9562 -0.0195469 16.7804 0.063885C16.5339 0.180887 16.5019 0.313321 16.5019 1.2177V2.01794L15.5026 2.00637L14.5032 1.99485L14.4915 1.16195C14.4783 0.224946 14.4519 0.135625 14.1585 0.0387823C13.9578 -0.027413 13.7891 0.0161298 13.6388 0.172849L13.5146 0.302446L13.5006 1.15942L13.4866 2.01635H12.5045H11.5224L11.5083 1.18688C11.4926 0.259247 11.4717 0.184627 11.1896 0.0500871C11.0549 -0.014131 11.0211 -0.0150336 10.8624 0.0410175C10.5308 0.158192 10.5077 0.229373 10.4917 1.18117L10.4776 2.01635H9.49552H8.51338L8.49941 1.15942L8.48544 0.302446L8.36117 0.172849C8.2109 0.0161298 8.04219 -0.027413 7.84154 0.0387823C7.54813 0.135625 7.52165 0.224946 7.5085 1.16195L7.49681 1.99485L6.49743 2.00637L5.49805 2.01794V1.2177C5.49805 0.313321 5.46607 0.180887 5.2196 0.063885C5.04693 -0.0180425 4.96032 -0.0190311 4.78146 0.0587699ZM18.3238 3.0575C18.5564 3.12662 18.8734 3.44359 18.9425 3.67622C19.0188 3.9333 19.0188 18.0667 18.9425 18.3238C18.8734 18.5564 18.5564 18.8734 18.3238 18.9425C18.0667 19.0188 3.9333 19.0188 3.67622 18.9425C3.44359 18.8734 3.12662 18.5564 3.0575 18.3238C2.98117 18.0667 2.98117 3.9333 3.0575 3.67622C3.12211 3.45872 3.44114 3.12757 3.64974 3.06146C3.87717 2.98938 18.0815 2.98555 18.3238 3.0575ZM4.35416 4.02288C4.30421 4.03285 4.2075 4.09931 4.13924 4.17057L4.0151 4.30013V11.002V17.7039L4.15562 17.8444L4.29613 17.9849H11H17.7039L17.8444 17.8444L17.9849 17.7039V11V4.29613L17.8444 4.15562L17.7039 4.0151L11.0744 4.00994C7.4282 4.00711 4.40406 4.01295 4.35416 4.02288ZM16.9963 11V16.9963H11H5.00373L4.99269 11.043C4.98663 7.76868 4.99088 5.06546 5.00214 5.03584C5.01848 4.9929 6.24262 4.98418 11.0095 4.99286L16.9963 5.00373V11Z" fill="black"/>
</svg>
