<svg width="426" height="512" viewBox="0 0 426 512" fill="none" xmlns="http://www.w3.org/2000/svg">
<path fill-rule="evenodd" clip-rule="evenodd" d="M86.4381 2.00569C80.3381 4.35369 73.9111 10.4747 70.9091 16.7967C69.1231 20.5587 68.6011 23.8267 68.2051 33.7097L67.7151 45.9597H42.3181C21.6571 45.9597 16.2301 46.2487 13.2171 47.5077C8.47706 49.4877 5.34006 52.4387 2.63806 57.4597C0.697059 61.0647 0.485059 62.9967 0.485059 77.0397V92.6187L3.50006 97.4947C5.69506 101.045 7.97106 103.132 11.8651 105.166L17.2131 107.96H42.5991H67.9851V121.46V134.96L43.7351 134.966C29.5921 134.969 17.8781 135.417 15.6301 136.041C9.78406 137.665 3.28906 144.198 1.48606 150.268C-0.334941 156.4 -0.527941 175.036 1.16006 181.739C2.77306 188.146 9.79906 195.172 16.2061 196.785C19.1221 197.52 29.7021 197.96 44.4281 197.96H67.9851V211.414V224.868L41.1591 225.164L14.3341 225.46L10.2151 228.188C7.94906 229.688 4.83306 233.063 3.29006 235.688C0.54206 240.362 0.485059 240.778 0.485059 255.96C0.485059 271.142 0.54206 271.558 3.29006 276.232C4.83306 278.857 7.94906 282.232 10.2151 283.732L14.3341 286.46L41.1591 286.756L67.9851 287.052V300.506V313.96H44.4281C29.7021 313.96 19.1221 314.4 16.2061 315.135C9.79906 316.748 2.77306 323.774 1.16006 330.181C-0.527941 336.884 -0.334941 355.52 1.48606 361.652C3.28906 367.722 9.78406 374.255 15.6301 375.879C17.8781 376.503 29.5921 376.951 43.7351 376.954L67.9851 376.96V390.46V403.96H42.5991H17.2131L11.8651 406.754C7.97106 408.788 5.69506 410.875 3.50006 414.425L0.485059 419.301V434.88C0.485059 448.923 0.697059 450.855 2.63806 454.46C5.34006 459.481 8.47706 462.432 13.2171 464.412C16.2301 465.671 21.6571 465.96 42.3181 465.96H67.7151L68.2051 478.21C68.6011 488.093 69.1231 491.361 70.9091 495.123C73.9881 501.606 80.3531 507.58 86.7231 509.963C91.9491 511.919 94.5731 511.96 212.985 511.96C332.024 511.96 333.992 511.928 339.197 509.934C352.299 504.913 357.985 494.43 357.985 475.296V466.052L384.901 465.756L411.818 465.46L416.151 462.416C418.535 460.741 421.61 457.366 422.985 454.916C425.354 450.693 425.485 449.644 425.485 434.88V419.301L422.47 414.425C420.275 410.875 417.999 408.788 414.105 406.754L408.757 403.96H383.371H357.985V390.46V376.96L382.235 376.954C396.672 376.951 408.104 376.506 410.485 375.855C416.115 374.314 423.308 366.706 424.823 360.688C426.328 354.714 426.32 336.175 424.81 330.181C423.197 323.774 416.171 316.748 409.764 315.135C406.848 314.4 396.268 313.96 381.542 313.96H357.985V300.506V287.052L384.811 286.756L411.636 286.46L415.755 283.732C418.021 282.232 421.137 278.857 422.68 276.232C425.428 271.558 425.485 271.142 425.485 255.96C425.485 240.778 425.428 240.362 422.68 235.688C421.137 233.063 418.021 229.688 415.755 228.188L411.636 225.46L384.811 225.164L357.985 224.868V211.414V197.96H381.542C396.268 197.96 406.848 197.52 409.764 196.785C416.171 195.172 423.197 188.146 424.81 181.739C426.498 175.036 426.305 156.4 424.484 150.268C422.681 144.198 416.186 137.665 410.34 136.041C408.092 135.417 396.378 134.969 382.235 134.966L357.985 134.96V121.46V107.96H383.371H408.757L414.105 105.166C417.999 103.132 420.275 101.045 422.47 97.4947L425.485 92.6187V77.0397C425.485 62.9967 425.273 61.0647 423.332 57.4597C420.63 52.4387 417.493 49.4877 412.753 47.5077C409.738 46.2477 404.3 45.9597 383.517 45.9597H357.985V36.6697C357.985 17.4857 352.311 7.01069 339.197 1.98569C333.989 -0.0103052 332.09 -0.0393051 212.697 0.0116949C95.1601 0.0626949 91.3321 0.122695 86.4381 2.00569ZM336.795 16.9857C343.459 21.0487 342.985 2.74471 342.985 255.96C342.985 509.175 343.459 490.871 336.795 494.934C333.523 496.929 332.086 496.953 212.985 496.953C93.8841 496.953 92.4471 496.929 89.1751 494.934C82.5111 490.871 82.9851 509.175 82.9851 255.96C82.9851 2.74471 82.5111 21.0487 89.1751 16.9857C92.4471 14.9907 93.8841 14.9667 212.985 14.9667C332.086 14.9667 333.523 14.9907 336.795 16.9857ZM67.9851 77.0097V94.0587L43.3951 93.7597C12.9421 93.3887 14.9851 94.6357 14.9851 76.4217C14.9851 59.0157 13.3141 59.9597 44.1201 59.9597H67.9851V77.0097ZM408.35 62.0327C410.942 64.0707 410.985 64.3067 410.985 76.4217C410.985 94.6357 413.028 93.3887 382.575 93.7597L357.985 94.0587V77.0097V59.9597H381.85C404.48 59.9597 405.852 60.0667 408.35 62.0327ZM145.485 65.4497C140.628 67.1537 134.248 73.9847 133.476 78.3077C133.167 80.0417 133.042 161.181 133.199 258.617L133.485 435.775L136.591 439.617C142.753 447.241 143.507 447.421 170.716 447.774L194.947 448.088L197.466 445.57C200.47 442.566 200.689 439.052 198.075 435.821C196.189 433.488 195.883 433.454 172.537 432.96C153.003 432.547 148.744 432.2 147.962 430.96C147.376 430.032 147.01 363.236 147 255.781C146.987 99.2117 147.14 81.9477 148.556 80.5307C149.887 79.1997 153.414 78.9597 171.606 78.9597C194.975 78.9597 198.171 78.3387 199.369 73.5637C200.166 70.3917 198.628 66.3737 196.099 65.0207C192.963 63.3417 150.468 63.7027 145.485 65.4497ZM226.721 64.6217C225.751 64.8907 224.253 66.4737 223.393 68.1387C221.451 71.8937 222.85 76.1217 226.6 77.8297C228.217 78.5667 237.213 78.9597 252.461 78.9597C272.383 78.9597 276.075 79.1917 277.414 80.5307C278.83 81.9477 278.985 99.2407 278.985 255.96C278.985 412.679 278.83 429.972 277.414 431.389C276.073 432.729 272.354 432.96 252.136 432.96C231.981 432.96 228.086 433.201 226.136 434.567C221.307 437.949 221.737 444.786 226.913 446.93C228.853 447.734 237.341 447.993 254.598 447.774C282.543 447.421 283.195 447.268 289.379 439.617L292.485 435.774V255.96V76.1457L289.379 72.3027C283.148 64.5937 282.647 64.4797 253.985 64.2957C239.96 64.2047 227.691 64.3517 226.721 64.6217ZM67.9851 166.46V182.96H43.4851C12.8551 182.96 14.9851 184.193 14.9851 166.46C14.9851 148.727 12.8551 149.96 43.4851 149.96H67.9851V166.46ZM408.985 151.96C410.772 153.747 410.985 155.293 410.985 166.46C410.985 184.193 413.115 182.96 382.485 182.96H357.985V166.46V149.96H382.485C405.652 149.96 407.094 150.069 408.985 151.96ZM67.9851 255.96V272.96H44.1201C13.2131 272.96 14.9851 273.994 14.9851 255.96C14.9851 237.926 13.2131 238.96 44.1201 238.96H67.9851V255.96ZM408.35 241.033C410.945 243.074 410.985 243.294 410.985 255.578C410.985 267.488 410.874 268.162 408.53 270.505L406.076 272.96H382.03H357.985V255.96V238.96H381.85C404.48 238.96 405.852 239.067 408.35 241.033ZM67.9851 345.46V361.96H43.4851C12.8551 361.96 14.9851 363.193 14.9851 345.46C14.9851 327.727 12.8551 328.96 43.4851 328.96H67.9851V345.46ZM408.985 330.96C410.772 332.747 410.985 334.293 410.985 345.46C410.985 363.193 413.115 361.96 382.485 361.96H357.985V345.46V328.96H382.485C405.652 328.96 407.094 329.069 408.985 330.96ZM67.9851 434.96V451.96H44.1201C13.3781 451.96 14.9851 452.85 14.9851 435.822C14.9851 423.237 15.7081 420.414 19.3001 418.967C20.5021 418.483 31.9481 418.058 44.7351 418.023L67.9851 417.96V434.96ZM409.075 420.821C410.724 422.859 410.985 424.865 410.985 435.498C410.985 452.904 412.656 451.96 381.85 451.96H357.985V434.91V417.861L382.575 418.16C407.045 418.459 407.174 418.472 409.075 420.821Z" fill="black"/>
</svg>
