<svg width="36" height="22" viewBox="0 0 36 22" fill="none" xmlns="http://www.w3.org/2000/svg">
<path fill-rule="evenodd" clip-rule="evenodd" d="M3.79125 0.0468452C3.0304 0.19885 2.32025 0.752755 1.96732 1.46949L1.74257 1.92585L1.70188 9.80512C1.65783 18.3448 1.64674 18.0575 2.02589 18.2017C2.25572 18.2891 2.56507 18.1789 2.68707 17.9661C2.75023 17.8561 2.77832 15.9425 2.80435 9.97795C2.83606 2.72136 2.84743 2.11834 2.9567 1.91872C3.1322 1.598 3.59424 1.23412 3.93469 1.14835C4.31282 1.05314 30.7155 1.04348 31.1247 1.13835C31.5303 1.2324 31.9211 1.54265 32.1193 1.92777L32.2943 2.26774L32.3108 10.0104C32.3199 14.2688 32.3441 17.8242 32.3646 17.9113C32.4163 18.1312 32.7687 18.2732 33.0333 18.181C33.44 18.0392 33.4248 18.3522 33.4232 10.2028C33.4224 5.6696 33.3954 2.56785 33.3543 2.28336C33.3171 2.02613 33.2036 1.64615 33.1022 1.43887C32.861 0.946273 32.2482 0.379421 31.7316 0.170902L31.3353 0.0109501L17.7035 0.00088018C10.206 -0.00459996 3.94545 0.0160879 3.79125 0.0468452ZM27.9949 2.25438C27.8249 2.38344 27.7321 2.68964 27.8049 2.8811C27.9218 3.18874 28.125 3.26478 28.8309 3.26478H29.4812L28.1213 4.63098C26.7991 5.95916 26.7625 6.00348 26.8051 6.22364C26.8598 6.50649 27.0735 6.68987 27.3486 6.68987C27.5311 6.68987 27.7371 6.51341 28.8675 5.38833C29.5867 4.67249 30.1974 4.0868 30.2244 4.0868C30.2514 4.0868 30.2735 4.34759 30.2735 4.66639C30.2735 5.1744 30.292 5.26325 30.4235 5.38566C30.6165 5.56548 30.9837 5.5687 31.1602 5.39217C31.3522 5.20023 31.3818 4.93958 31.3572 3.66189C31.3361 2.56428 31.3291 2.51537 31.1693 2.34535L31.0031 2.16875H29.5554C28.503 2.16875 28.0769 2.19211 27.9949 2.25438ZM4.05875 2.47242C3.72967 2.61881 3.6811 2.88158 3.70693 4.37622C3.72802 5.59624 3.73659 5.66631 3.88174 5.81133C4.093 6.02239 4.48949 6.01937 4.66273 5.80544C4.76904 5.67412 4.7909 5.52924 4.7909 4.95486V4.26258L6.14771 5.61323C7.65386 7.11252 7.70523 7.14266 8.09227 6.75563C8.45307 6.39483 8.38299 6.27762 6.94733 4.83964C6.25108 4.14229 5.68142 3.54893 5.68142 3.52098C5.68142 3.4931 5.94118 3.47029 6.25868 3.47029C6.80081 3.47029 6.84465 3.45926 6.97795 3.28978C7.17174 3.04345 7.15886 2.77725 6.94336 2.57456C6.77142 2.41283 6.73422 2.4081 5.52195 2.39186C4.56662 2.37912 4.22637 2.39782 4.05875 2.47242ZM26.9802 13.0553C26.7643 13.2712 26.7372 13.3962 26.8558 13.6302C26.8974 13.7125 27.4864 14.3382 28.1645 15.0207L29.3975 16.2617L28.8307 16.2945C28.3197 16.3241 28.2483 16.3455 28.1042 16.513C27.8999 16.7506 27.9016 16.9761 28.1097 17.2182L28.2749 17.4104L29.4345 17.4331C30.1606 17.4473 30.7026 17.4266 30.8842 17.3777C31.3402 17.255 31.3819 17.0871 31.3564 15.4789L31.3353 14.1444L31.1358 13.9729C30.9809 13.8398 30.8889 13.8106 30.7248 13.8422C30.3553 13.9134 30.2735 14.0896 30.2735 14.8149C30.2735 15.1687 30.2514 15.4581 30.2244 15.4581C30.1974 15.4581 29.5867 14.8724 28.8675 14.1566C27.42 12.716 27.3565 12.6789 26.9802 13.0553ZM6.19518 14.4306C5.48009 15.1464 4.87159 15.7321 4.84296 15.7321C4.81432 15.7321 4.7909 15.4701 4.7909 15.1498C4.7909 14.6589 4.76939 14.5461 4.65389 14.4306C4.47414 14.2508 4.08211 14.2488 3.90421 14.4267C3.71227 14.6187 3.68261 14.8793 3.7072 16.157C3.7283 17.2546 3.73529 17.3035 3.89517 17.4735L4.06129 17.6501L5.50496 17.6479C6.58085 17.6463 6.97857 17.6231 7.06591 17.5568C7.24079 17.4238 7.33272 17.1301 7.25956 16.9378C7.14263 16.6302 6.93938 16.5541 6.23354 16.5541H5.58319L6.94315 15.1879C8.2653 13.8597 8.30195 13.8154 8.25934 13.5953C8.20434 13.3108 7.99054 13.129 7.71106 13.129C7.52233 13.129 7.33293 13.2917 6.19518 14.4306ZM0.186691 19.0927C-0.0146351 19.294 -0.0212112 19.319 0.0206433 19.7264C0.11223 20.6177 0.781697 21.5014 1.6229 21.841L2.01658 22H17.5322H33.0479L33.4415 21.841C34.2827 21.5014 34.9522 20.6177 35.0438 19.7264C35.0856 19.319 35.0791 19.294 34.8777 19.0927L34.6682 18.8832H27.6705H20.6727L20.4725 19.0834C20.2254 19.3305 20.2142 19.5848 20.4405 19.811L20.6086 19.9792H27.2221C30.8596 19.9792 33.8354 20.0023 33.8351 20.0306C33.8349 20.0589 33.7755 20.1718 33.7031 20.2816C33.5174 20.5632 33.0537 20.8557 32.7173 20.9034C32.56 20.9258 25.6188 20.935 17.2925 20.924L2.15358 20.904L1.83416 20.7162C1.56385 20.5573 1.22881 20.1734 1.22881 20.0225C1.22881 19.9987 4.21356 19.9792 7.86155 19.9792H14.4942L14.6432 19.8207C14.79 19.6644 14.8329 19.4116 14.7496 19.1945C14.628 18.8778 14.7569 18.8832 7.35786 18.8832H0.396238L0.186691 19.0927ZM16.2992 18.9718C15.9391 19.154 15.8986 19.7329 16.2334 19.9121C16.3023 19.949 16.8868 19.9792 17.5322 19.9792C18.1776 19.9792 18.7622 19.949 18.8311 19.9121C19.0243 19.8087 19.125 19.4515 19.0216 19.236C18.8752 18.9306 18.6824 18.8852 17.5322 18.8852C16.8123 18.8852 16.4153 18.9131 16.2992 18.9718Z" fill="black"/>
</svg>
